<svg id="svg" xmlns="http://www.w3.org/2000/svg" width="80" height="80" viewBox="-5 25 80 80">
    <metadata><?xpacket begin="﻿" id="W5M0MpCehiHzreSzNTczkc9d"?>
        <x:xmpmeta xmlns:x="adobe:ns:meta/" x:xmptk="Adobe XMP Core 5.6-c142 79.160924, 2017/07/13-01:06:39        ">
            <rdf:RDF xmlns:rdf="http://www.w3.org/1999/02/22-rdf-syntax-ns#">
                <rdf:Description rdf:about=""/>
            </rdf:RDF>
        </x:xmpmeta>
        <?xpacket end="w"?>
    </metadata>
    <defs>
        <style>
            .cls-1 {
            fill: #fff;
            }

            .cls-1, .cls-2, .cls-3, .cls-4, .cls-5 {
            fill-rule: evenodd;
            }

            .cls-2, .cls-6 {
            fill: #0f2b44;
            }

            .cls-3 {
            fill: #334353;
            }

            .cls-4 {
            fill: #e30613;
            }

            .cls-5 {
            fill: #2c3e50;
            }
        </style>
    </defs>
    <path class="cls-1"
          d="M40.535,66.116a9.61,9.61,0,0,1-6.892-2.829l-12.2-12.315c-3.9-3.939-3.705-10.537.431-14.713s10.676-4.371,14.574-.436L38.1,37.495l-1.026,1.035-1.656-1.671c-3.335-3.363-8.952-3.167-12.524.436s-3.762,9.276-.429,12.642l12.2,12.314c3.333,3.366,8.946,3.174,12.52-.428s3.768-9.28.431-12.645l-4.659-4.7A3.869,3.869,0,0,0,40.5,43.408a3.28,3.28,0,0,0-2.606.933l-5.8,5.857-1.025-1.035,5.8-5.859A4.729,4.729,0,0,1,40.6,41.947a5.283,5.283,0,0,1,3.392,1.491l4.659,4.7c3.9,3.939,3.709,10.541-.432,14.718a10.835,10.835,0,0,1-7.679,3.26m-0.045-2.491a7.466,7.466,0,0,1-5.369-2.212L23.293,49.476a8.171,8.171,0,0,1,.328-11.45,7.985,7.985,0,0,1,11.342-.331l1.484,1.5-1.025,1.035-1.485-1.5a6.547,6.547,0,0,0-9.291.331,6.7,6.7,0,0,0-.328,9.379L36.147,60.377A5.92,5.92,0,0,0,40.7,62.157a6.984,6.984,0,0,0,4.738-2.109,7.094,7.094,0,0,0,2.088-4.779,6.18,6.18,0,0,0-1.761-4.6l-3.55-3.58C40.745,45.6,40,45.578,38.6,46.99l-4.844,4.894-1.025-1.039,4.844-4.89c1.98-1.995,3.618-1.967,5.666.1l3.548,3.579a7.634,7.634,0,0,1,2.185,5.68,8.569,8.569,0,0,1-2.512,5.771,8.421,8.421,0,0,1-5.718,2.535c-0.086,0-.172.006-0.256,0.006M40.616,61.3A5.18,5.18,0,0,1,36.9,59.775L25.129,47.889a5.917,5.917,0,0,1,.217-8.126,5.615,5.615,0,0,1,7.907-.3l1.466,1.482-1.025,1.036L32.226,40.5a4.174,4.174,0,0,0-5.854.3,4.439,4.439,0,0,0-.215,6.052L37.93,58.738c1.528,1.547,4.121,1.221,5.77-.444A4.428,4.428,0,0,0,45,55.313a4,4,0,0,0-.987-2.949L41.4,49.721c-0.889-.9-1.222-0.881-2.133.039l-3.821,3.848L34.42,52.573l3.922-3.951c1.674-1.69,2.314-1.723,4.083.064l2.617,2.642a5.439,5.439,0,0,1,1.412,4.031,5.9,5.9,0,0,1-1.726,3.969A6.088,6.088,0,0,1,40.616,61.3m-18.889-.637L20.7,59.629l3.767-3.8,1.025,1.035Zm1.667,1.682-1.026-1.035,3.765-3.806,1.025,1.036Zm1.7,1.733-1.025-1.035,3.767-3.8,1.025,1.035ZM11.308,81.9A9.4,9.4,0,0,1,6.78,82.995a5.8,5.8,0,0,1,0-11.606,6.2,6.2,0,0,1,4.312,1.389L9.655,74.243A4.112,4.112,0,0,0,6.8,73.167,3.73,3.73,0,0,0,3.04,77.113a3.777,3.777,0,0,0,3.755,4.1,5.208,5.208,0,0,0,2.565-.578V78.034H7.12V76.256h4.188V81.9Zm2.87-10.234h1.947v9.267h4.652v1.779h-6.6V71.669Zm13.668,9.548a3.78,3.78,0,0,0,3.771-4.1,3.768,3.768,0,1,0-7.526,0,3.777,3.777,0,0,0,3.756,4.1M27.83,71.388a5.46,5.46,0,0,1,5.826,5.788,5.6,5.6,0,0,1-5.826,5.819,5.8,5.8,0,0,1,0-11.606m11.778,4.961c1.1,0,2.38-.094,2.38-1.529,0-1.31-1.206-1.466-2.21-1.466H38.094v3h1.514Zm-3.462-4.68h3.8c2.1,0,4.08.687,4.08,3.167a2.822,2.822,0,0,1-2.534,3L44.4,82.715H42.05l-2.535-4.68H38.094v4.68H36.146V71.669ZM53.329,78.5l-1.684-4.493L49.929,78.5h3.4Zm-2.473-6.834h1.685l4.713,11.046H55.029l-1.02-2.527H49.265l-0.989,2.527H46.1Zm11.452,5.273-3.647-5.273h2.457L63.7,75.756l2.55-4.087h2.364l-3.585,5.273L69,82.714H66.527l-2.89-4.664-2.874,4.664H58.414ZM11.669,91.312a1.261,1.261,0,0,0,1.48-1.25,1.184,1.184,0,0,0-1.372-1.25H11.185v2.5h0.485ZM10.534,88.22h1.439a1.75,1.75,0,0,1,1.857,1.843A1.848,1.848,0,0,1,11.9,91.905H10.534V88.22Zm4.984,0h2.419v0.593H16.168v0.906h1.676v0.594H16.168v1H18.03v0.593H15.518V88.22Zm3.863,0h0.748L21.124,91,22.15,88.22h0.7l-1.475,3.686H20.815Zm4.957,0h2.419v0.593H24.988v0.906h1.676v0.594H24.988v1H26.85v0.593H24.338V88.22Zm4.227,0h0.65v3.093h1.552v0.593h-2.2V88.22Zm5.4,3.187a1.261,1.261,0,0,0,1.258-1.369,1.257,1.257,0,1,0-2.512,0,1.261,1.261,0,0,0,1.254,1.369m-0.005-3.28A1.822,1.822,0,0,1,35.9,90.057,1.869,1.869,0,0,1,33.957,92a1.937,1.937,0,0,1,0-3.873m4.683,1.692c0.371,0,.851-0.02.851-0.521,0-.453-0.428-0.515-0.779-0.515H38.248v1.036h0.392ZM37.6,88.22h1.228a1.114,1.114,0,0,1,1.346,1.067c0,0.927-.686,1.094-1.46,1.094H38.248v1.525H37.6V88.22Zm4.165,0h0.99L43.728,90.8l0.985-2.583h0.98v3.686H45.073V88.844h-0.01l-1.109,3.061H43.5l-1.109-3.061h-0.01v3.061H41.763V88.22Zm5.826,0h2.42v0.593h-1.77v0.906h1.676v0.594H48.239v1H50.1v0.593H47.589V88.22Zm4.227,0h0.862l1.769,2.739h0.01V88.22h0.65v3.686H54.281l-1.805-2.827h-0.01v2.827h-0.65V88.22Zm5.925,0.593H56.622V88.22H59.51v0.593H58.391v3.093h-0.65V88.813Z"/>
</svg>
